<svg xmlns="http://www.w3.org/2000/svg" width="1615" height="1128" fill="none" viewBox="0 0 1615 1128"><path fill="#23dc35" fill-rule="evenodd" d="M52.277 0C23.404 0 0 23.404 0 52.277V1074.58c0 28.87 23.404 52.28 52.277 52.28H1562.5c28.87 0 52.28-23.41 52.28-52.28V148.118c0-28.872-23.41-52.277-52.28-52.277H508.248l-59.473-75.827A52.28 52.28 0 0 0 407.641 0z" clip-rule="evenodd"/><path fill="#d0fdc2" d="M111.236 69V24.074h18.484q4.236 0 7.445 1.733 3.273 1.668 5.07 4.749 1.861 3.081 1.861 7.317v.898q0 4.172-1.925 7.317-1.861 3.08-5.135 4.813-3.209 1.67-7.316 1.669h-10.012V69zm8.472-24.132h9.177q3.017 0 4.878-1.669 1.861-1.668 1.861-4.556V38q0-2.888-1.861-4.557-1.862-1.669-4.878-1.669h-9.177zm40.081 24.645q-3.721 0-6.546-1.668-2.76-1.734-4.3-4.75t-1.54-6.931V37.167h8.086v18.355q0 3.594 1.733 5.391 1.797 1.797 5.07 1.797 3.722 0 5.777-2.438 2.053-2.504 2.053-6.932V37.167h8.087V69h-7.958v-4.172h-1.156q-.77 1.605-2.888 3.145t-6.418 1.54m43.977.385q-4.3 0-6.61-1.476t-3.402-3.273h-1.155V69h-7.958V24.074h8.086v16.75h1.156q.705-1.155 1.861-2.181 1.22-1.027 3.145-1.669 1.99-.706 4.877-.706 3.852 0 7.124 1.925 3.274 1.862 5.263 5.52 1.99 3.658 1.99 8.857v1.027q0 5.198-1.99 8.857t-5.263 5.583q-3.272 1.861-7.124 1.861m-2.438-7.06q3.722.001 6.225-2.374 2.503-2.44 2.503-7.06v-.642q0-4.62-2.503-6.995-2.439-2.44-6.225-2.44-3.723 0-6.226 2.44-2.503 2.375-2.503 6.995v.642q0 4.62 2.503 7.06 2.503 2.375 6.226 2.375M223.001 69V24.074h8.087V69zm14.481 0V37.167h8.086V69zm4.043-35.556q-2.183 0-3.722-1.412-1.477-1.412-1.477-3.722t1.477-3.723q1.54-1.412 3.722-1.412 2.246 0 3.722 1.412 1.477 1.412 1.477 3.723t-1.477 3.722-3.722 1.412m25.391 36.454q-4.62 0-8.407-1.925-3.723-1.926-5.905-5.584t-2.182-8.857v-.898q0-5.199 2.182-8.857t5.905-5.584q3.787-1.925 8.407-1.925 4.557 0 7.83 1.605 3.274 1.604 5.263 4.428 2.054 2.76 2.696 6.29l-7.83 1.668q-.257-1.925-1.156-3.465t-2.567-2.44q-1.604-.897-4.043-.898-2.439 0-4.429 1.091-1.925 1.027-3.08 3.145-1.091 2.055-1.091 5.07v.642q0 3.017 1.091 5.135 1.155 2.053 3.08 3.144 1.99 1.027 4.429 1.027 3.659 0 5.519-1.86 1.926-1.927 2.439-5.007l7.83 1.861a17.6 17.6 0 0 1-2.888 6.226q-1.99 2.76-5.263 4.364t-7.83 1.605"/><path fill="#158420" d="M0 209.109c0-28.872 23.405-52.277 52.277-52.277H1562.5c28.87 0 52.28 23.405 52.28 52.277v865.471c0 28.87-23.41 52.28-52.28 52.28H52.277C23.405 1126.86 0 1103.45 0 1074.58z"/><g opacity=".5" style="mix-blend-mode:soft-light"><mask id="a" width="1615" height="971" x="0" y="157" maskUnits="userSpaceOnUse" style="mask-type:alpha"><path fill="#ce808c" d="M0 209.277C0 180.405 23.405 157 52.277 157H1562.5c28.87 0 52.28 23.405 52.28 52.277v865.473c0 28.87-23.41 52.28-52.28 52.28H52.277C23.405 1127.03 0 1103.62 0 1074.75z"/></mask><g fill="#072c0b" mask="url(#a)"><path d="M-18.705 154.646h40.296v236.666h-40.296zM-18.705 628.003h40.296v236.666h-40.296zM-18.705 1101.36h40.296v236.666h-40.296zM61.885 154.646h40.296v236.666H61.885zM61.885 628.003h40.296v236.666H61.885zM61.885 1101.36h40.296v236.666H61.885zM142.476 154.646h40.296v236.666h-40.296zM142.476 628.003h40.296v236.666h-40.296zM142.476 1101.36h40.296v236.666h-40.296zM223.066 154.646h40.296v236.666h-40.296zM223.066 628.003h40.296v236.666h-40.296zM223.066 1101.36h40.296v236.666h-40.296zM303.663 154.646h40.296v236.666h-40.296zM303.663 628.003h40.296v236.666h-40.296zM303.663 1101.36h40.296v236.666h-40.296zM384.253 154.646h40.296v236.666h-40.296zM384.253 628.003h40.296v236.666h-40.296zM384.253 1101.36h40.296v236.666h-40.296zM464.844 154.646h40.296v236.666h-40.296zM464.844 628.003h40.296v236.666h-40.296zM464.844 1101.36h40.296v236.666h-40.296z"/><path d="M21.59 391.354h40.296V628.02H21.59zM21.59 864.65h40.296v236.666H21.59zM102.181 391.354h40.296V628.02h-40.296zM102.181 864.65h40.296v236.666h-40.296zM182.771 391.354h40.296V628.02h-40.296zM182.771 864.65h40.296v236.666h-40.296zM263.368 391.354h40.296V628.02h-40.296zM263.368 864.65h40.296v236.666h-40.296zM343.958 391.354h40.296V628.02h-40.296zM343.958 864.65h40.296v236.666h-40.296zM424.548 391.354h40.296V628.02h-40.296zM424.548 864.65h40.296v236.666h-40.296zM505.139 391.354h40.296V628.02h-40.296zM505.139 864.65h40.296v236.666h-40.296z"/><path d="M504.783 391.354h40.296V628.02h-40.296zM504.783 864.65h40.296v236.666h-40.296zM545.078 154.646h40.296v236.666h-40.296z"/><path d="M545.078 628.003h40.296v236.666h-40.296zM545.078 1101.36h40.296v236.666h-40.296zM625.668 154.646h40.296v236.666h-40.296zM625.668 628.003h40.296v236.666h-40.296zM625.668 1101.36h40.296v236.666h-40.296zM706.259 154.646h40.296v236.666h-40.296zM706.259 628.003h40.296v236.666h-40.296zM706.259 1101.36h40.296v236.666h-40.296zM786.849 154.646h40.296v236.666h-40.296zM786.849 628.003h40.296v236.666h-40.296zM786.849 1101.36h40.296v236.666h-40.296zM867.446 154.646h40.296v236.666h-40.296zM867.446 628.003h40.296v236.666h-40.296zM867.446 1101.36h40.296v236.666h-40.296zM948.036 154.646h40.296v236.666h-40.296zM948.036 628.003h40.296v236.666h-40.296zM948.036 1101.36h40.296v236.666h-40.296zM1028.63 154.646h40.296v236.666h-40.296zM1028.63 628.003h40.296v236.666h-40.296zM1028.63 1101.36h40.296v236.666h-40.296z"/><path d="M585.373 391.354h40.296V628.02h-40.296zM585.373 864.65h40.296v236.666h-40.296zM665.963 391.354h40.296V628.02h-40.296zM665.963 864.65h40.296v236.666h-40.296zM746.554 391.354h40.296V628.02h-40.296zM746.554 864.65h40.296v236.666h-40.296zM827.15 391.354h40.296V628.02H827.15zM827.15 864.65h40.296v236.666H827.15zM907.741 391.354h40.296V628.02h-40.296zM907.741 864.65h40.296v236.666h-40.296zM988.331 391.354h40.296V628.02h-40.296zM988.331 864.65h40.296v236.666h-40.296zM1068.92 391.354h40.296V628.02h-40.296zM1068.92 864.65h40.296v236.666h-40.296z"/><path d="M1068.57 391.354h40.296V628.02h-40.296zM1068.57 864.65h40.296v236.666h-40.296zM1108.86 154.646h40.296v236.666h-40.296z"/><path d="M1108.86 628.003h40.296v236.666h-40.296zM1108.86 1101.36h40.296v236.666h-40.296zM1189.45 154.646h40.296v236.666h-40.296zM1189.45 628.003h40.296v236.666h-40.296zM1189.45 1101.36h40.296v236.666h-40.296zM1270.04 154.646h40.296v236.666h-40.296zM1270.04 628.003h40.296v236.666h-40.296zM1270.04 1101.36h40.296v236.666h-40.296zM1350.63 154.646h40.296v236.666h-40.296zM1350.63 628.003h40.296v236.666h-40.296zM1350.63 1101.36h40.296v236.666h-40.296zM1431.23 154.646h40.296v236.666h-40.296zM1431.23 628.003h40.296v236.666h-40.296zM1431.23 1101.36h40.296v236.666h-40.296zM1511.82 154.646h40.296v236.666h-40.296zM1511.82 628.003h40.296v236.666h-40.296zM1511.82 1101.36h40.296v236.666h-40.296zM1592.41 154.646h40.296v236.666h-40.296zM1592.41 628.003h40.296v236.666h-40.296zM1592.41 1101.36h40.296v236.666h-40.296z"/><path d="M1149.16 391.354h40.296V628.02h-40.296zM1149.16 864.65h40.296v236.666h-40.296zM1229.75 391.354h40.296V628.02h-40.296zM1229.75 864.65h40.296v236.666h-40.296zM1310.34 391.354h40.296V628.02h-40.296zM1310.34 864.65h40.296v236.666h-40.296zM1390.93 391.354h40.296V628.02h-40.296zM1390.93 864.65h40.296v236.666h-40.296zM1471.52 391.354h40.296V628.02h-40.296zM1471.52 864.65h40.296v236.666h-40.296zM1552.11 391.354h40.296V628.02h-40.296zM1552.11 864.65h40.296v236.666h-40.296z"/></g></g></svg>