<svg width="278" height="194" viewBox="0 0 278 194" fill="none" xmlns="http://www.w3.org/2000/svg" class="hero-folder">
  <g clip-path="url(#clip0_161_1011)">
    <rect y="0.148376" width="278" height="193.703" rx="14.3484" fill="none"/>
    <path d="M14.3477 243.093V68.4884C14.3477 55.5646 24.8245 45.0878 37.7483 45.0878H130.545C135.734 45.0878 140.777 43.3625 144.879 40.1834L168.224 22.0915C172.326 18.9123 177.368 17.1871 182.558 17.1871H239.353C252.277 17.1871 262.754 27.6639 262.754 40.5877V243.093C262.754 256.017 252.277 266.494 239.353 266.494H37.7483C24.8245 266.494 14.3477 256.017 14.3477 243.093Z" fill="#FFFF57"/>
    <rect width="200.913" height="160.388" rx="14.4004" transform="matrix(0.996916 0.0784789 -0.0765671 0.997064 50.6035 75.7279)" class="hero-folder-file" fill="black"/>
    <rect x="30.5508" y="116.19" width="219.606" height="131.403" rx="14.4004" fill="#8751E6"/>
    <path d="M61.1484 103.695C61.1484 95.7424 67.5957 89.2951 75.5488 89.2951H262.754V253.099C262.754 261.052 256.306 267.5 248.353 267.5H75.5488C67.5957 267.5 61.1484 261.052 61.1484 253.099V103.695Z" fill="#43CCFF"/>
  </g>
  <defs>
    <clipPath id="clip0_161_1011">
      <rect y="0.148376" width="278" height="193.703" rx="14.3484" fill="white"/>
    </clipPath>
  </defs>
</svg>
