<svg width="1095" height="1228" viewBox="0 0 1095 1228" fill="none" xmlns="http://www.w3.org/2000/svg">
<path fill-rule="evenodd" clip-rule="evenodd" d="M787.19 481.667V0L567.939 9.91989e-06V413.797L272.144 119.871L117.11 273.925L411.144 566.101H0V783.967H1094.7V566.101L872.16 566.101C825.232 566.101 787.19 528.299 787.19 481.667Z" fill="currentColor"/>
<path d="M144.481 1227.62C119.293 1227.62 97.0595 1223.11 77.7801 1214.09C58.5007 1205.07 43.4193 1192.17 32.5357 1175.38C21.6522 1158.58 16.2104 1138.37 16.2104 1114.74V1101.68H76.8473V1114.74C76.8473 1134.33 82.9109 1149.1 95.0383 1159.05C107.166 1168.69 123.646 1173.51 144.481 1173.51C165.626 1173.51 181.329 1169.31 191.591 1160.92C202.163 1152.52 207.45 1141.79 207.45 1128.73C207.45 1119.71 204.807 1112.41 199.52 1106.81C194.545 1101.21 187.082 1096.7 177.131 1093.28C167.492 1089.55 155.675 1086.13 141.682 1083.02L130.954 1080.69C108.565 1075.71 89.2856 1069.49 73.1158 1062.03C57.2569 1054.26 44.9741 1044.15 36.2672 1031.71C27.8714 1019.27 23.6734 1003.1 23.6734 983.203C23.6734 963.302 28.3378 946.354 37.6665 932.361C47.3062 918.057 60.6774 907.174 77.7801 899.711C95.1938 891.937 115.562 888.05 138.883 888.05C162.205 888.05 182.884 892.092 200.92 900.177C219.266 907.951 233.57 919.767 243.832 935.626C254.404 951.174 259.691 970.765 259.691 994.397V1008.39H199.054V994.397C199.054 981.959 196.566 972.008 191.591 964.545C186.926 956.772 180.085 951.174 171.068 947.754C162.05 944.022 151.322 942.156 138.883 942.156C120.226 942.156 106.388 945.732 97.3705 952.885C88.6637 959.726 84.3103 969.21 84.3103 981.337C84.3103 989.422 86.3315 996.263 90.3739 1001.86C94.7274 1007.46 101.102 1012.12 109.498 1015.85C117.894 1019.59 128.622 1022.85 141.682 1025.65L152.41 1027.98C175.732 1032.96 195.944 1039.33 213.047 1047.1C230.461 1054.88 243.987 1065.14 253.627 1077.89C263.267 1090.64 268.087 1106.96 268.087 1126.87C268.087 1146.77 262.956 1164.34 252.694 1179.57C242.743 1194.5 228.439 1206.32 209.782 1215.02C191.435 1223.42 169.668 1227.62 144.481 1227.62ZM297.213 1221.09V894.58H355.984V1018.19H364.38C366.868 1013.21 370.755 1008.24 376.041 1003.26C381.327 998.284 388.324 994.242 397.031 991.132C406.049 987.712 417.399 986.002 431.081 986.002C449.116 986.002 464.82 990.2 478.191 998.595C491.873 1006.68 502.446 1018.03 509.909 1032.65C517.372 1046.95 521.103 1063.74 521.103 1083.02V1221.09H462.332V1087.68C462.332 1070.27 457.979 1057.21 449.272 1048.5C440.876 1039.8 428.749 1035.44 412.89 1035.44C394.854 1035.44 380.861 1041.51 370.91 1053.63C360.96 1065.45 355.984 1082.09 355.984 1103.54V1221.09H297.213ZM671.394 1227.62C648.383 1227.62 628.016 1222.8 610.291 1213.16C592.877 1203.21 579.195 1189.37 569.245 1171.64C559.605 1153.61 554.785 1132.46 554.785 1108.21V1102.61C554.785 1078.36 559.605 1057.37 569.245 1039.64C578.884 1021.61 592.411 1007.77 609.825 998.129C627.238 988.178 647.451 983.203 670.461 983.203C693.161 983.203 712.907 988.334 729.699 998.595C746.491 1008.55 759.551 1022.54 768.88 1040.57C778.208 1058.3 782.873 1078.98 782.873 1102.61V1122.67H614.489C615.111 1138.53 621.019 1151.43 632.214 1161.38C643.408 1171.33 657.09 1176.31 673.26 1176.31C689.741 1176.31 701.868 1172.73 709.642 1165.58C717.416 1158.43 723.324 1150.5 727.367 1141.79L775.41 1166.98C771.056 1175.06 764.682 1183.93 756.286 1193.57C748.201 1202.89 737.317 1210.98 723.635 1217.82C709.953 1224.35 692.539 1227.62 671.394 1227.62ZM614.955 1078.82H723.169C721.925 1065.45 716.483 1054.72 706.844 1046.64C697.515 1038.55 685.232 1034.51 669.995 1034.51C654.136 1034.51 641.542 1038.55 632.214 1046.64C622.885 1054.72 617.132 1065.45 614.955 1078.82ZM816.526 1221.09V894.58H875.297V1221.09H816.526ZM960.013 1221.09V1038.24H901.242V989.733H960.013V946.821C960.013 930.962 964.678 918.368 974.006 909.039C983.646 899.4 996.084 894.58 1011.32 894.58H1071.96V943.089H1031.84C1023.14 943.089 1018.78 947.754 1018.78 957.082V989.733H1079.42V1038.24H1018.78V1221.09H960.013Z" fill="currentColor"/>
</svg>
