<svg width="1965" height="463" viewBox="0 0 1965 463" fill="none" xmlns="http://www.w3.org/2000/svg">
<path fill-rule="evenodd" clip-rule="evenodd" d="M457.301 279.814V0L329.932 5.76275e-06V240.387L158.096 69.6364L68.0327 159.131L238.846 328.865H0V455.429H635.944V328.865L506.663 328.865C479.401 328.865 457.301 306.904 457.301 279.814Z" fill="currentColor"/>
<path d="M847.114 462.987C819.578 462.987 795.272 458.057 774.195 448.199C753.118 438.34 736.63 424.232 724.732 405.875C712.833 387.518 706.884 365.421 706.884 339.585V325.307H773.175V339.585C773.175 361.001 779.804 377.149 793.062 388.028C806.32 398.566 824.337 403.835 847.114 403.835C870.231 403.835 887.398 399.246 898.616 390.067C910.175 380.889 915.954 369.16 915.954 354.882C915.954 345.024 913.064 337.035 907.285 330.916C901.846 324.797 893.687 319.867 882.809 316.128C872.27 312.049 859.352 308.309 844.054 304.91L832.326 302.36C807.85 296.921 786.773 290.122 769.095 281.963C751.758 273.464 738.33 262.416 728.811 248.818C719.633 235.22 715.043 217.542 715.043 195.785C715.043 174.029 720.142 155.501 730.341 140.204C740.879 124.566 755.497 112.668 774.195 104.509C793.232 96.0099 815.499 91.7606 840.995 91.7606C866.491 91.7606 889.098 96.1799 908.815 105.019C928.872 113.517 944.51 126.436 955.728 143.773C967.287 160.771 973.066 182.187 973.066 208.024V223.321H906.775V208.024C906.775 194.426 904.056 183.547 898.616 175.388C893.517 166.89 886.038 160.771 876.18 157.031C866.321 152.952 854.593 150.912 840.995 150.912C820.598 150.912 805.47 154.821 795.611 162.64C786.093 170.119 781.334 180.488 781.334 193.746C781.334 202.584 783.543 210.063 787.963 216.182C792.722 222.302 799.691 227.401 808.87 231.48C818.048 235.56 829.776 239.129 844.054 242.189L855.783 244.738C881.279 250.178 903.376 257.147 922.073 265.645C941.11 274.144 955.898 285.362 966.437 299.3C976.975 313.238 982.244 331.086 982.244 352.843C982.244 374.599 976.635 393.807 965.417 410.464C954.538 426.782 938.901 439.7 918.504 449.219C898.447 458.397 874.65 462.987 847.114 462.987ZM1014.09 455.848V98.8995H1078.34V234.03H1087.52C1090.24 228.591 1094.49 223.151 1100.26 217.712C1106.04 212.273 1113.69 207.854 1123.21 204.454C1133.07 200.715 1145.48 198.845 1160.44 198.845C1180.15 198.845 1197.32 203.434 1211.94 212.613C1226.9 221.452 1238.45 233.86 1246.61 249.838C1254.77 265.475 1258.85 283.833 1258.85 304.91V455.848H1194.6V310.009C1194.6 290.972 1189.84 276.694 1180.32 267.175C1171.14 257.656 1157.89 252.897 1140.55 252.897C1120.83 252.897 1105.53 259.526 1094.66 272.784C1083.78 285.702 1078.34 303.89 1078.34 327.346V455.848H1014.09ZM1423.15 462.987C1398 462.987 1375.73 457.717 1356.35 447.179C1337.32 436.3 1322.36 421.173 1311.48 401.796C1300.94 382.078 1295.67 358.962 1295.67 332.446V326.326C1295.67 299.81 1300.94 276.864 1311.48 257.486C1322.02 237.769 1336.81 222.642 1355.84 212.103C1374.88 201.225 1396.98 195.785 1422.14 195.785C1446.95 195.785 1468.54 201.395 1486.9 212.613C1505.25 223.491 1519.53 238.789 1529.73 258.506C1539.93 277.884 1545.03 300.49 1545.03 326.326V348.253H1360.94C1361.62 365.591 1368.08 379.699 1380.32 390.577C1392.56 401.456 1407.52 406.895 1425.19 406.895C1443.21 406.895 1456.47 402.985 1464.97 395.166C1473.47 387.348 1479.93 378.679 1484.35 369.16L1536.87 396.696C1532.11 405.535 1525.14 415.224 1515.96 425.762C1507.12 435.961 1495.22 444.799 1480.27 452.278C1465.31 459.417 1446.27 462.987 1423.15 462.987ZM1361.45 300.32H1479.76C1478.4 285.702 1472.45 273.974 1461.91 265.135C1451.71 256.297 1438.28 251.877 1421.63 251.877C1404.29 251.877 1390.52 256.297 1380.32 265.135C1370.12 273.974 1363.83 285.702 1361.45 300.32ZM1581.82 455.848V98.8995H1646.07V455.848H1581.82ZM1738.68 455.848V255.957H1674.43V202.924H1738.68V156.011C1738.68 138.674 1743.78 124.906 1753.98 114.707C1764.52 104.169 1778.12 98.8995 1794.78 98.8995H1861.07V151.932H1817.21C1807.69 151.932 1802.93 157.031 1802.93 167.23V202.924H1869.22V255.957H1802.93V455.848H1738.68Z" fill="currentColor"/>
</svg>
